<svg xmlns="http://www.w3.org/2000/svg" xmlns:xlink="http://www.w3.org/1999/xlink" width="191" height="109" viewBox="0 0 191 109">
  <defs>
    <clipPath id="clip-path">
      <rect id="Rectángulo_8" data-name="Rectángulo 8" width="191" height="109" fill="#fff" stroke="#707070" stroke-width="1"/>
    </clipPath>
  </defs>
  <g id="Enmascarar_grupo_2" data-name="Enmascarar grupo 2" clip-path="url(#clip-path)">
    <g id="Sin_título-2" data-name="Sin título-2" transform="translate(45.827)">
      <path id="Trazado_30" data-name="Trazado 30" d="M165.406,141.869s.757-54.277-5.986-72.545l-16.084-4.7s-23.4,17.926-21.71,45.563l8.222,31.682Z" transform="translate(-98.482 -64.593)" fill="#6ba4c5"/>
      <path id="Trazado_31" data-name="Trazado 31" d="M181.712,157.027s-.18-24.4,0-32.491a35.263,35.263,0,0,1,2.993-13.725s24.342,18.082,24.883,17.926c.577-.156-3.21,5.166-3.174,14.067v14.223Z" transform="translate(-111.794 -79.751)" fill="#7c4990"/>
      <path id="Trazado_32" data-name="Trazado 32" d="M162.268,81.415a67.478,67.478,0,0,0-2.849-12.138l-16.084-4.7s-23.4,17.926-21.71,45.563C121.589,110.171,133.815,87.981,162.268,81.415Z" transform="translate(-98.482 -64.578)" fill="#6ba4c5"/>
      <path id="Trazado_33" data-name="Trazado 33" d="M126.468,126.882l1.623,5.54,25.532-8.839-.9-6.38S128.56,125.731,126.468,126.882Z" transform="translate(-99.574 -81.849)" fill="#72361c"/>
      <path id="Trazado_34" data-name="Trazado 34" d="M129.8,141.508s.9,3.268,1.262,4.513l24.162-7.812-.469-4.7Z" transform="translate(-100.313 -87.2)" fill="#72361c"/>
      <path id="Trazado_35" data-name="Trazado 35" d="M133.093,153.7l.721,4.264,23.3-6.66-.685-4.824Z" transform="translate(-101.041 -91.457)" fill="#72361c"/>
      <path id="Trazado_36" data-name="Trazado 36" d="M134.483,165.4l.721,4.264,22.359-5.509-.685-4.793Z" transform="translate(-101.349 -95.684)" fill="#72361c"/>
      <g id="Grupo_4" data-name="Grupo 4" transform="translate(7.926 47.212)">
        <path id="Trazado_37" data-name="Trazado 37" d="M123.677,163.766s-5.445-22.781-10.1-28.912l-11.432,5.166s2.993,17.117,1.695,24.866h19.835Z" transform="translate(-102.111 -134.853)" fill="#dfa300"/>
        <path id="Trazado_38" data-name="Trazado 38" d="M105.744,164.932c.685-5.477,2.488-17.833,9.521-27.107a17.281,17.281,0,0,0-1.731-2.925L102.1,140.066s2.993,17.117,1.695,24.866Z" transform="translate(-102.101 -134.869)" fill="#e4c35a"/>
      </g>
      <rect id="Rectángulo_9" data-name="Rectángulo 9" width="94.412" height="3.423" transform="translate(5.437 78.552)" fill="#6ba4c5"/>
      <path id="Trazado_39" data-name="Trazado 39" d="M210.232,128.737c-.577.156-24.883-17.926-24.883-17.926a23.9,23.9,0,0,0-.974,2.4c4.436,5.415,14.209,19.98,14.858,43.82h7.826V142.8C207.023,133.9,210.773,128.581,210.232,128.737Z" transform="translate(-112.402 -79.751)" fill="#7c4990"/>
      <g id="Grupo_6" data-name="Grupo 6" transform="translate(0 86.363)">
        <g id="Grupo_5" data-name="Grupo 5">
          <path id="Trazado_40" data-name="Trazado 40" d="M118.763,200.817c-.144-2.832-.144-4.233,1.767-6.909a2.215,2.215,0,0,1,1.406-.654h.036c.288,0,.361.124.216.342a8.237,8.237,0,0,0-1.767,3.486,19.2,19.2,0,0,0-.469,2.988h.036a17.694,17.694,0,0,1,2.741-2.988,24.71,24.71,0,0,1,4.8-3.517,2.45,2.45,0,0,1,1.046-.342h0c.469,0,.361.342-.18.654a34.582,34.582,0,0,0-7.862,6.909.993.993,0,0,1-.757.342h-.5C118.979,201.159,118.8,201.035,118.763,200.817Z" transform="translate(-97.854 -193.161)" fill="#6ba4c5"/>
          <path id="Trazado_41" data-name="Trazado 41" d="M133.46,197.409h-2.885a.952.952,0,0,0-.793.436,12.223,12.223,0,0,0-1.01,2.054c-.108.249.072.436.361.436h3.354c.289,0,.469.187.4.436h0a.734.734,0,0,1-.685.436h-4.688c-.288,0-.469-.187-.4-.436,1.046-2.894,1.659-4.326,4.941-7.1a1.977,1.977,0,0,1,1.046-.4h4.436c.289,0,.325.187.036.4h0a1.868,1.868,0,0,1-1.01.4h-3.1a1.662,1.662,0,0,0-.974.4,10.568,10.568,0,0,0-1.479,1.649c-.18.218-.072.436.216.436h2.885c.289,0,.4.187.252.436h0A1.562,1.562,0,0,1,133.46,197.409Z" transform="translate(-99.713 -193.176)" fill="#6ba4c5"/>
          <path id="Trazado_42" data-name="Trazado 42" d="M141.515,193.722a2.346,2.346,0,0,1,1.154-.5c.649-.062,1.406-.093,2.092-.093,1.406,0,2.056.187,2.2.622.108.342-.144.871-.721,1.463a6.777,6.777,0,0,1-3.462,2.023.032.032,0,0,1-.036.031c.649.218.757.778.613,1.618-.108.622-.144,1.152-.18,1.556,0,.342-.433.654-.866.654h0c-.288,0-.5-.125-.5-.342a7.329,7.329,0,0,1,.144-1.587c.18-1.12-.072-1.525-1.226-1.556h-.577a1.141,1.141,0,0,0-.938.5,13.769,13.769,0,0,0-1.118,2.459.936.936,0,0,1-.829.529h0c-.361,0-.577-.218-.469-.529A12.793,12.793,0,0,1,141.515,193.722Zm-1.19,2.645c-.216.28-.072.5.288.5h.685a4.7,4.7,0,0,0,3.5-1.494c.9-1,.469-1.432-.9-1.463a5.057,5.057,0,0,0-.721.031,2.1,2.1,0,0,0-1.118.5A13.91,13.91,0,0,0,140.325,196.367Z" transform="translate(-101.854 -193.131)" fill="#6ba4c5"/>
          <path id="Trazado_43" data-name="Trazado 43" d="M149.194,199.23c-.541.622-.829.965-1.3,1.587a.919.919,0,0,1-.721.342h0c-.433,0-.649-.342-.361-.685a32.953,32.953,0,0,1,7.573-6.691,3.674,3.674,0,0,1,1.731-.56h0c.469,0,.613.218.361.56-1.8,2.583-1.839,3.952-1.659,6.691.036.342-.4.685-.865.685h-.036c-.289,0-.469-.124-.5-.342a12.126,12.126,0,0,1-.036-1.618c0-.342-.288-.591-.757-.591h-2.056A2.176,2.176,0,0,0,149.194,199.23Zm2.813-1.4a2.017,2.017,0,0,0,1.767-1.12,7.26,7.26,0,0,1,.4-1.152,6.708,6.708,0,0,1,.866-1.432H155c-.649.467-1.3.934-1.875,1.4a16.067,16.067,0,0,0-1.406,1.152c-.685.56-.469,1.152.289,1.152Z" transform="translate(-104.052 -193.161)" fill="#6ba4c5"/>
          <path id="Trazado_44" data-name="Trazado 44" d="M159.309,200.708a13.106,13.106,0,0,1,4.8-6.971,2.158,2.158,0,0,1,1.19-.467h.469c.216,0,.325.093.252.218a6.026,6.026,0,0,0-.288,3.735c.144.934.325,1.774.5,2.614h.036a10.218,10.218,0,0,1,1.659-3.3,15.331,15.331,0,0,1,2.6-2.8,2.159,2.159,0,0,1,1.19-.467h0c.361,0,.361.218.072.467a13.111,13.111,0,0,0-4.76,6.971.855.855,0,0,1-.793.5h-.361a.54.54,0,0,1-.469-.218,12.565,12.565,0,0,1-1.226-3.859,4.984,4.984,0,0,1,.252-2.614h-.072a15.736,15.736,0,0,0-2.452,3.237,15.488,15.488,0,0,0-1.37,2.957.855.855,0,0,1-.793.5h0C159.417,201.175,159.237,200.957,159.309,200.708Z" transform="translate(-106.846 -193.176)" fill="#6ba4c5"/>
          <path id="Trazado_45" data-name="Trazado 45" d="M178.371,193.27c.361,0,.4.218.072.5a13.336,13.336,0,0,0-3.462,4.139c-1.01,1.774-.18,2.552,1.19,2.552,1.515,0,2.669-.809,3.678-2.552a13.688,13.688,0,0,1,3.426-4.139,2.29,2.29,0,0,1,1.262-.5h0c.361,0,.4.218.072.5a12.526,12.526,0,0,0-3.39,4.077c-1.406,2.459-3.174,3.486-5.409,3.486-2.092,0-3.606-.965-2.2-3.455a13.6,13.6,0,0,1,3.426-4.108,2.507,2.507,0,0,1,1.334-.5Z" transform="translate(-109.896 -193.176)" fill="#6ba4c5"/>
          <path id="Trazado_46" data-name="Trazado 46" d="M194.882,197.673a13.785,13.785,0,0,1,2.56-3.392h-.036a40.58,40.58,0,0,0-3.787,2.988,25.824,25.824,0,0,0-3.354,3.579.948.948,0,0,1-.685.342h-.108c-.252,0-.469-.125-.469-.342a10.277,10.277,0,0,1,.144-3.486,7.244,7.244,0,0,1,1.334-3.05h-.036a19.959,19.959,0,0,0-2.993,3.486,14.2,14.2,0,0,0-1.587,2.988.93.93,0,0,1-.793.467h0c-.361,0-.577-.249-.433-.529a14.846,14.846,0,0,1,5.373-6.971,2.215,2.215,0,0,1,1.154-.436h.649c.252,0,.361.124.216.311a7.513,7.513,0,0,0-1.515,3.455c-.216.965-.288,1.867-.4,2.708h.036a16.454,16.454,0,0,1,2.488-2.708,25.8,25.8,0,0,1,4.8-3.455,2.109,2.109,0,0,1,.974-.311h.649c.325,0,.361.187.108.436a11.768,11.768,0,0,0-4.147,6.971.842.842,0,0,1-.793.529H194.2c-.325,0-.541-.218-.469-.467A10.273,10.273,0,0,1,194.882,197.673Z" transform="translate(-112.451 -193.191)" fill="#6ba4c5"/>
          <path id="Trazado_47" data-name="Trazado 47" d="M97.971,213.838h0c.361,0,.577.218.469.5a16.54,16.54,0,0,1-.721,1.836c-.036.062-.036.093-.072.124-.18.373.216.654.721.436a4.376,4.376,0,0,1,1.659-.342c1.587,0,1.983.809.974,2.241a13.224,13.224,0,0,1-2.849,3.081,2.267,2.267,0,0,1-1.19.467h0c-.361,0-.361-.218-.072-.467a14.911,14.911,0,0,0,2.777-2.957c.757-1.058.541-1.525-.433-1.525a5.081,5.081,0,0,0-2.308.747,1.476,1.476,0,0,0-.433.342,13.45,13.45,0,0,1-3.065,3.423,2.269,2.269,0,0,1-1.226.467h0c-.361,0-.361-.218-.072-.467a15.751,15.751,0,0,0,5.013-7.438A.945.945,0,0,1,97.971,213.838Z" transform="translate(-91.92 -199.927)" fill="#dfa300"/>
          <path id="Trazado_48" data-name="Trazado 48" d="M104.915,220.7a7.216,7.216,0,0,1,5.337-3.019c1.839,0,3.1,1.12,1.587,3.019a9.38,9.38,0,0,1-6.455,2.925C103.545,223.627,103.436,222.569,104.915,220.7Zm5.626,0c1.046-1.307.577-2.21-.685-2.21a4.924,4.924,0,0,0-3.606,2.21c-1.046,1.307-1.19,2.147.108,2.147A6.056,6.056,0,0,0,110.541,220.7Z" transform="translate(-94.573 -201.188)" fill="#dfa300"/>
          <path id="Trazado_49" data-name="Trazado 49" d="M115.076,221.061a12.013,12.013,0,0,0,2.092-2.77c.108-.218,0-.373-.288-.373h-.144c-.252,0-.4-.156-.288-.373h0a.843.843,0,0,1,.649-.373h.289a.747.747,0,0,0,.613-.342c.216-.373.288-.56.5-.934a.747.747,0,0,1,.613-.342h.108c.252,0,.433.156.325.373-.144.342-.216.529-.361.871-.108.218.036.373.325.373h1.046c.252,0,.4.156.288.373,0,.031,0,.031-.036.031a.828.828,0,0,1-.685.373h-1.046a.828.828,0,0,0-.685.373,13.082,13.082,0,0,1-2.128,2.8c-.649.685-.829,1.089.036,1.089a2.39,2.39,0,0,0,.433-.031c.325-.031.433.062.289.249h0a1.653,1.653,0,0,1-.866.436,6.6,6.6,0,0,1-1.046.093C113.562,222.928,114.031,222.181,115.076,221.061Z" transform="translate(-96.837 -200.489)" fill="#dfa300"/>
          <path id="Trazado_50" data-name="Trazado 50" d="M121.646,220.7a7.354,7.354,0,0,1,5.193-3.019c1.911,0,2.56,1.058,1.37,2.708a4.452,4.452,0,0,1-.469.56h-4.472a1.174,1.174,0,0,0-.829.436c-.577.965-.4,1.525.866,1.525a6.381,6.381,0,0,0,1.767-.28c.325-.093.541-.031.469.156h0a1.157,1.157,0,0,1-.757.467,10.44,10.44,0,0,1-2.524.4C120.276,223.627,120.2,222.569,121.646,220.7Zm5.049-.467a.937.937,0,0,0,.757-.4c.469-.871.036-1.369-.974-1.369a4.249,4.249,0,0,0-2.813,1.307c-.252.218-.18.467.144.467Z" transform="translate(-98.286 -201.188)" fill="#dfa300"/>
          <path id="Trazado_51" data-name="Trazado 51" d="M130.239,221.121a13.21,13.21,0,0,0,4.183-6.785.855.855,0,0,1,.793-.5h0c.361,0,.541.218.469.5a13.531,13.531,0,0,1-4.255,6.847c-.288.28-.288.4-.072.4a1.168,1.168,0,0,0,.288-.031c-.252.28-.4.436-.685.716a3.322,3.322,0,0,1-.829.093C129.157,222.366,129.374,221.93,130.239,221.121Z" transform="translate(-100.243 -199.927)" fill="#dfa300"/>
          <path id="Trazado_52" data-name="Trazado 52" d="M143.171,220.554c2.056-2.272,6.6-2.645,7.321-4.326.18-.467.072-.871-.613-.871a1.891,1.891,0,0,0-1.695,1.152c-.649,1.463.072,3.392.974,4.482a3.013,3.013,0,0,0,.938.778c.18.093.072.311-.252.5h0a1.484,1.484,0,0,1-1.046.249,2.217,2.217,0,0,1-1.01-.9,5.678,5.678,0,0,1-.649-5.073,3.325,3.325,0,0,1,3.029-1.867c1.226,0,1.767.654,1.37,1.556-.866,2.023-5.59,2.614-7.1,4.295-.757.84-.541,1.4.577,1.4a9.3,9.3,0,0,0,3.21-.871,12.349,12.349,0,0,0,3.534-2.3,1.066,1.066,0,0,1,.721-.311h0c.4,0,.469.311.144.56a16.9,16.9,0,0,1-3.967,2.49,11.924,11.924,0,0,1-4.688,1.183C142.161,222.639,142.053,221.768,143.171,220.554Z" transform="translate(-103.113 -200.2)" fill="#dfa300"/>
          <path id="Trazado_53" data-name="Trazado 53" d="M162.723,217.792h0c.288,0,.433.156.361.373-.108.28-.18.4-.288.654h.036a4.607,4.607,0,0,1,2.7-1.183,1.529,1.529,0,0,1,.721.124c-.252.342-.4.529-.685.871a2.08,2.08,0,0,0-.685-.093,4.372,4.372,0,0,0-2.56,1.245c-.072.062-.108.124-.144.156a13.282,13.282,0,0,1-2.813,3.112,1.868,1.868,0,0,1-1.01.4h-.18c-.288,0-.325-.187-.072-.4a13.057,13.057,0,0,0,3.859-4.855A.993.993,0,0,1,162.723,217.792Z" transform="translate(-106.545 -201.173)" fill="#dfa300"/>
          <path id="Trazado_54" data-name="Trazado 54" d="M166.725,220.7a7.222,7.222,0,0,1,5.157-3.019c1.911,0,2.6,1.058,1.37,2.708a4.454,4.454,0,0,1-.469.56h-4.472a1.174,1.174,0,0,0-.829.436c-.577.965-.361,1.525.866,1.525a6.381,6.381,0,0,0,1.767-.28c.325-.093.541-.031.469.156h0a1.161,1.161,0,0,1-.721.467,10.44,10.44,0,0,1-2.524.4C165.39,223.627,165.282,222.569,166.725,220.7Zm5.049-.467a.937.937,0,0,0,.757-.4c.433-.871.036-1.369-.974-1.369a4.322,4.322,0,0,0-2.813,1.307c-.252.218-.18.467.144.467Z" transform="translate(-108.275 -201.188)" fill="#dfa300"/>
          <path id="Trazado_55" data-name="Trazado 55" d="M174.505,222.523h0c.361-.187.685-.218.793-.093a1.619,1.619,0,0,0,1.334.436,3.435,3.435,0,0,0,2.38-.871c.541-.591-.108-.84-.757-1.058-.793-.28-1.659-.685-1.046-1.649a3.928,3.928,0,0,1,3.426-1.649,3.378,3.378,0,0,1,1.659.4c.18.124.108.373-.144.56h0a.779.779,0,0,1-.721.093,2.382,2.382,0,0,0-2.993.529c-.325.56.325.747,1.01,1,.866.311,1.875.654.829,1.712a6.911,6.911,0,0,1-4.544,1.649,2.251,2.251,0,0,1-1.695-.529C173.928,222.959,174.145,222.71,174.505,222.523Z" transform="translate(-110.106 -201.173)" fill="#dfa300"/>
          <path id="Trazado_56" data-name="Trazado 56" d="M184.742,220.7a7.029,7.029,0,0,1,5.265-3.019c1.839,0,3.1,1.12,1.659,3.019a9.155,9.155,0,0,1-6.383,2.925C183.444,223.627,183.264,222.569,184.742,220.7Zm5.59,0c1.01-1.307.541-2.21-.757-2.21A4.862,4.862,0,0,0,186,220.7c-1.01,1.307-1.118,2.147.144,2.147A5.855,5.855,0,0,0,190.332,220.7Z" transform="translate(-112.265 -201.188)" fill="#dfa300"/>
          <path id="Trazado_57" data-name="Trazado 57" d="M197.754,217.808h.4c.18,0,.289.093.216.249a7.574,7.574,0,0,1-.325.809h.036a4.607,4.607,0,0,1,2.741-1.183,1.8,1.8,0,0,1,.757.124c-.252.342-.4.529-.649.871a2.08,2.08,0,0,0-.685-.093,4.434,4.434,0,0,0-2.6,1.276l-.108.093a12.7,12.7,0,0,1-2.993,3.3,1.16,1.16,0,0,1-.649.249h-.577c-.18,0-.216-.124-.036-.249a13.045,13.045,0,0,0,4.039-5.166A.462.462,0,0,1,197.754,217.808Z" transform="translate(-114.349 -201.188)" fill="#dfa300"/>
          <path id="Trazado_58" data-name="Trazado 58" d="M202.14,221.015a12.691,12.691,0,0,0,2.092-2.925c.072-.124,0-.249-.18-.249h-.469c-.18,0-.252-.124-.18-.249a1.839,1.839,0,0,1,.144-.28.535.535,0,0,1,.4-.249c.252,0,.361-.031.613-.031a.5.5,0,0,0,.4-.218c.252-.467.361-.716.577-1.183a.453.453,0,0,1,.4-.218h.433c.18,0,.288.124.216.249-.18.467-.252.685-.469,1.152-.072.124.036.249.216.249h1.406c.18,0,.252.124.216.249-.072.124-.072.187-.144.311a.543.543,0,0,1-.433.249h-1.406a.543.543,0,0,0-.433.249,12.691,12.691,0,0,1-2.092,2.925c-.613.685-.793,1.089.072,1.089a4.628,4.628,0,0,0,.613-.062c.216-.031.325.031.216.156-.072.093-.108.156-.18.249a1.065,1.065,0,0,1-.577.28,9.762,9.762,0,0,1-1.262.124C200.7,222.882,201.13,222.136,202.14,221.015Z" transform="translate(-116.138 -200.444)" fill="#dfa300"/>
        </g>
      </g>
    </g>
  </g>
</svg>
